<svg xmlns="http://www.w3.org/2000/svg" viewBox="0 0 1718.65 249.18"><defs><style>.cls-1{fill:#f2811d;}</style></defs><g id="Layer_2" data-name="Layer 2"><g id="Layer_1-2" data-name="Layer 1"><path d="M1315.35,248.28c-39,0-71.81-13.46-95-38.94-20.5-22.55-31.79-52.8-31.79-85.2s11.29-62.65,31.79-85.2c23.17-25.47,56-38.94,95-38.94a126.46,126.46,0,0,1,73.52,24.1L1397,30,1362,77.48l-8.17-7.07c-7.36-6.38-21.24-13.2-38.12-13.2-45.67,0-66.47,34.7-66.47,66.93s20.8,66.93,66.47,66.93c16,0,28.48-4.1,38.07-12.53l8.09-7.1,35,46.39-7.62,6.07C1367.78,241,1345.68,248.28,1315.35,248.28Zm250.89-4.69V151.65h-88.43v91.94H1419V151.65H1283v-55h136V4.69h58.85V96.63h88.43V4.69h58.84v238.9Z"/><path d="M213.34,210.45q-37.65,36.68-88.63,36.67-51.76,0-88.63-36.67A115.69,115.69,0,0,1,8.89,170.68,120.72,120.72,0,0,1,0,125a119.37,119.37,0,0,1,8.89-45.7q8.88-21.7,27.19-39.77Q72.41,2.83,124.71,2.82q51.24,0,88.63,36.41a118.91,118.91,0,0,1,27.19,39.9A120.63,120.63,0,0,1,249.42,125Q249.42,175.13,213.34,210.45ZM124.71,190.5q19.35,0,33.86-9.57a63.81,63.81,0,0,0,22.22-24.81A68.27,68.27,0,0,0,188.5,125a67.47,67.47,0,0,0-7.71-31,65.14,65.14,0,0,0-22.22-24.8q-14.52-9.7-33.86-9.71-19.6,0-34.12,9.57A63.12,63.12,0,0,0,68.5,93.7a68.31,68.31,0,0,0,0,62.55,63,63,0,0,0,22.09,24.68Q105.1,190.5,124.71,190.5Z"/><path d="M452.56,59.45H278.7V2.82H452.56Zm0,112.71H339.35v75H278.7V115.27H452.56Z"/><path d="M655.7,59.45H481.84V2.82H655.7Zm0,112.71H542.49v75H481.84V115.27H655.7Z"/><path d="M745.63,247.12H685V115.54H809.69A22.83,22.83,0,0,0,823,111.36a29.48,29.48,0,0,0,9.41-10.65,27.38,27.38,0,0,0,0-26.43A29.48,29.48,0,0,0,823,63.63a22.83,22.83,0,0,0-13.33-4.18H685V2.82H809.69q27.45,0,47.06,13a85.62,85.62,0,0,1,29.67,32.49q10.07,19.56,10.07,39.23a83.9,83.9,0,0,1-6.15,31.69,81.53,81.53,0,0,1-18.69,27.64q-25.89,25.34-62,25.34H745.63Z"/><path d="M925.77,247.12V2.82h60.65v244.3Z"/><path d="M1169.17,2.82v244.3h-60.66V59.45H1015.7V2.82Z"/><path class="cls-1" d="M1683.84,179a34.37,34.37,0,0,1,34.81,34.82c0,19.58-15.23,35.36-34.81,35.36a35.29,35.29,0,0,1-35.36-35.36C1648.48,194.23,1664.25,179,1683.84,179Z"/></g></g></svg>