<svg width="136" height="99" viewBox="0 0 136 99" fill="none" xmlns="http://www.w3.org/2000/svg">
<rect x="0.539062" y="1" width="134" height="39" rx="4.5" fill="white"/>
<path d="M68.1751 22.2511C65.8231 22.2511 63.9061 24.0401 63.9061 26.5041C63.9061 28.9531 65.8231 30.7571 68.1751 30.7571C70.5281 30.7571 72.4451 28.9531 72.4451 26.5041C72.4441 24.0401 70.5271 22.2511 68.1751 22.2511ZM68.1751 29.0831C66.8861 29.0831 65.7751 28.0201 65.7751 26.5051C65.7751 24.9741 66.8871 23.9271 68.1751 23.9271C69.4641 23.9271 70.5751 24.9741 70.5751 26.5051C70.5751 28.0191 69.4641 29.0831 68.1751 29.0831ZM58.8611 22.2511C56.5091 22.2511 54.5921 24.0401 54.5921 26.5041C54.5921 28.9531 56.5091 30.7571 58.8611 30.7571C61.2141 30.7571 63.1311 28.9531 63.1311 26.5041C63.1311 24.0401 61.2141 22.2511 58.8611 22.2511ZM58.8611 29.0831C57.5721 29.0831 56.4611 28.0201 56.4611 26.5051C56.4611 24.9741 57.5731 23.9271 58.8611 23.9271C60.1501 23.9271 61.2611 24.9741 61.2611 26.5051C61.2621 28.0191 60.1501 29.0831 58.8611 29.0831ZM47.7831 23.5571V25.3611H52.1011C51.9721 26.3761 51.6341 27.1171 51.1181 27.6321C50.4901 28.2601 49.5071 28.9531 47.7831 28.9531C45.1251 28.9531 43.0471 26.8101 43.0471 24.1521C43.0471 21.4941 45.1251 19.3511 47.7831 19.3511C49.2171 19.3511 50.2641 19.9151 51.0371 20.6401L52.3101 19.3671C51.2301 18.3361 49.7971 17.5471 47.7831 17.5471C44.1421 17.5471 41.0811 20.5111 41.0811 24.1521C41.0811 27.7931 44.1421 30.7571 47.7831 30.7571C49.7481 30.7571 51.2311 30.1121 52.3901 28.9041C53.5821 27.7121 53.9531 26.0361 53.9531 24.6831C53.9531 24.2651 53.9211 23.8781 53.8561 23.5561H47.7831V23.5571ZM93.0911 24.9581C92.7371 24.0081 91.6571 22.2511 89.4501 22.2511C87.2591 22.2511 85.4381 23.9751 85.4381 26.5041C85.4381 28.8881 87.2431 30.7571 89.6591 30.7571C91.6081 30.7571 92.7361 29.5651 93.2041 28.8721L91.7541 27.9051C91.271 28.6141 90.6101 29.0811 89.6591 29.0811C88.7091 29.0811 88.0321 28.6461 87.5971 27.7921L93.2841 25.4401L93.0911 24.9581ZM87.2911 26.3761C87.2431 24.7321 88.5641 23.8951 89.5151 23.8951C90.2561 23.8951 90.8841 24.2661 91.0941 24.7971L87.2911 26.3761ZM82.6681 30.5001H84.5361V17.9991H82.6681V30.5001ZM79.6061 23.2021H79.5421C79.1231 22.7021 78.3171 22.2511 77.3031 22.2511C75.1761 22.2511 73.2271 24.1201 73.2271 26.5211C73.2271 28.9051 75.1761 30.7581 77.3031 30.7581C78.3181 30.7581 79.1231 30.3071 79.5421 29.7921H79.6061V30.4041C79.6061 32.0311 78.7361 32.9011 77.3351 32.9011C76.1911 32.9011 75.4821 32.0801 75.1921 31.3871L73.5651 32.0641C74.0321 33.1911 75.2721 34.5771 77.3351 34.5771C79.5261 34.5771 81.3791 33.2881 81.3791 30.1461V22.5101H79.6071V23.2021H79.6061ZM77.4641 29.0831C76.1751 29.0831 75.0961 28.0031 75.0961 26.5211C75.0961 25.0221 76.1751 23.9271 77.4641 23.9271C78.7361 23.9271 79.7351 25.0221 79.7351 26.5211C79.7351 28.0031 78.7361 29.0831 77.4641 29.0831ZM101.845 17.9991H97.3741V30.5001H99.2391V25.7641H101.844C103.912 25.7641 105.946 24.2671 105.946 21.8821C105.946 19.4971 103.913 17.9991 101.845 17.9991ZM101.893 24.0241H99.2391V19.7391H101.893C103.288 19.7391 104.08 20.8941 104.08 21.8821C104.08 22.8501 103.288 24.0241 101.893 24.0241ZM113.425 22.2291C112.074 22.2291 110.675 22.8241 110.096 24.1431L111.752 24.8341C112.106 24.1431 112.766 23.9171 113.457 23.9171C114.422 23.9171 115.403 24.4961 115.419 25.5251V25.6541C115.081 25.4611 114.357 25.1721 113.473 25.1721C111.688 25.1721 109.87 26.1531 109.87 27.9861C109.87 29.6591 111.334 30.7361 112.974 30.7361C114.228 30.7361 114.92 30.1731 115.354 29.5131H115.418V30.4781H117.22V25.6851C117.221 23.4671 115.563 22.2291 113.425 22.2291ZM113.199 29.0801C112.589 29.0801 111.736 28.7741 111.736 28.0181C111.736 27.0531 112.798 26.6831 113.715 26.6831C114.534 26.6831 114.921 26.8601 115.419 27.1011C115.274 28.2601 114.277 29.0801 113.199 29.0801ZM123.782 22.5021L121.643 27.9221H121.579L119.359 22.5021H117.349L120.678 30.0771L118.78 34.2911H120.726L125.857 22.5021H123.782ZM106.976 30.5001H108.841V17.9991H106.976V30.5001Z" fill="#606176"/>
<path d="M47.4571 10.7429C47.4571 11.5809 47.2091 12.2479 46.7121 12.7459C46.1481 13.3379 45.4121 13.6339 44.5081 13.6339C43.6421 13.6339 42.9051 13.3339 42.3001 12.7339C41.6941 12.1329 41.3911 11.3889 41.3911 10.5009C41.3911 9.61194 41.6941 8.86794 42.3001 8.26794C42.9051 7.66694 43.6421 7.36694 44.5081 7.36694C44.9381 7.36694 45.3491 7.45094 45.7391 7.61794C46.1301 7.78594 46.4431 8.00894 46.6771 8.28794L46.1501 8.81594C45.7531 8.34094 45.2061 8.10394 44.5071 8.10394C43.8751 8.10394 43.3291 8.32594 42.8681 8.76994C42.4071 9.21394 42.1771 9.79094 42.1771 10.4999C42.1771 11.2089 42.4071 11.7859 42.8681 12.2299C43.3291 12.6739 43.8751 12.8959 44.5071 12.8959C45.1771 12.8959 45.7361 12.6729 46.1831 12.2259C46.4731 11.9349 46.6411 11.5299 46.6861 11.0109H44.5071V10.2899H47.4141C47.4441 10.4469 47.4571 10.5979 47.4571 10.7429Z" fill="#606176"/>
<path d="M52.0672 8.237H49.3352V10.139H51.7992V10.86H49.3352V12.762H52.0672V13.5H48.5642V7.5H52.0672V8.237Z" fill="#606176"/>
<path d="M55.3181 13.5H54.5471V8.237H52.8711V7.5H56.9941V8.237H55.3181V13.5Z" fill="#606176"/>
<path d="M59.9771 13.5V7.5H60.748V13.5H59.9771Z" fill="#606176"/>
<path d="M64.1672 13.5H63.3962V8.237H61.7202V7.5H65.8432V8.237H64.1672V13.5Z" fill="#606176"/>
<path d="M73.648 12.725C73.058 13.331 72.325 13.634 71.448 13.634C70.571 13.634 69.838 13.331 69.249 12.725C68.659 12.119 68.365 11.377 68.365 10.5C68.365 9.62299 68.659 8.88099 69.249 8.27499C69.838 7.66899 70.571 7.36499 71.448 7.36499C72.32 7.36499 73.052 7.66999 73.644 8.27899C74.236 8.88799 74.532 9.62799 74.532 10.5C74.532 11.377 74.237 12.119 73.648 12.725ZM69.818 12.222C70.262 12.672 70.805 12.896 71.448 12.896C72.091 12.896 72.635 12.671 73.078 12.222C73.522 11.772 73.745 11.198 73.745 10.5C73.745 9.80199 73.522 9.22799 73.078 8.77799C72.635 8.32799 72.091 8.10399 71.448 8.10399C70.805 8.10399 70.262 8.32899 69.818 8.77799C69.375 9.22799 69.152 9.80199 69.152 10.5C69.152 11.198 69.375 11.772 69.818 12.222Z" fill="#606176"/>
<path d="M75.614 13.5V7.5H76.552L79.468 12.167H79.501L79.468 11.011V7.5H80.239V13.5H79.434L76.383 8.606H76.35L76.383 9.762V13.5H75.614Z" fill="#606176"/>
<path d="M47.4571 10.7429C47.4571 11.5809 47.2091 12.2479 46.7121 12.7459C46.1481 13.3379 45.4121 13.6339 44.5081 13.6339C43.6421 13.6339 42.9051 13.3339 42.3001 12.7339C41.6941 12.1329 41.3911 11.3889 41.3911 10.5009C41.3911 9.61194 41.6941 8.86794 42.3001 8.26794C42.9051 7.66694 43.6421 7.36694 44.5081 7.36694C44.9381 7.36694 45.3491 7.45094 45.7391 7.61794C46.1301 7.78594 46.4431 8.00894 46.6771 8.28794L46.1501 8.81594C45.7531 8.34094 45.2061 8.10394 44.5071 8.10394C43.8751 8.10394 43.3291 8.32594 42.8681 8.76994C42.4071 9.21394 42.1771 9.79094 42.1771 10.4999C42.1771 11.2089 42.4071 11.7859 42.8681 12.2299C43.3291 12.6739 43.8751 12.8959 44.5071 12.8959C45.1771 12.8959 45.7361 12.6729 46.1831 12.2259C46.4731 11.9349 46.6411 11.5299 46.6861 11.0109H44.5071V10.2899H47.4141C47.4441 10.4469 47.4571 10.5979 47.4571 10.7429Z" stroke="black" stroke-width="0.2" stroke-miterlimit="10"/>
<path d="M52.0672 8.237H49.3352V10.139H51.7992V10.86H49.3352V12.762H52.0672V13.5H48.5642V7.5H52.0672V8.237Z" stroke="black" stroke-width="0.2" stroke-miterlimit="10"/>
<path d="M55.3181 13.5H54.5471V8.237H52.8711V7.5H56.9941V8.237H55.3181V13.5Z" stroke="black" stroke-width="0.2" stroke-miterlimit="10"/>
<path d="M59.9771 13.5V7.5H60.748V13.5H59.9771Z" stroke="black" stroke-width="0.2" stroke-miterlimit="10"/>
<path d="M64.1672 13.5H63.3962V8.237H61.7202V7.5H65.8432V8.237H64.1672V13.5Z" stroke="black" stroke-width="0.2" stroke-miterlimit="10"/>
<path d="M73.648 12.725C73.058 13.331 72.325 13.634 71.448 13.634C70.571 13.634 69.838 13.331 69.249 12.725C68.659 12.119 68.365 11.377 68.365 10.5C68.365 9.62299 68.659 8.88099 69.249 8.27499C69.838 7.66899 70.571 7.36499 71.448 7.36499C72.32 7.36499 73.052 7.66999 73.644 8.27899C74.236 8.88799 74.532 9.62799 74.532 10.5C74.532 11.377 74.237 12.119 73.648 12.725ZM69.818 12.222C70.262 12.672 70.805 12.896 71.448 12.896C72.091 12.896 72.635 12.671 73.078 12.222C73.522 11.772 73.745 11.198 73.745 10.5C73.745 9.80199 73.522 9.22799 73.078 8.77799C72.635 8.32799 72.091 8.10399 71.448 8.10399C70.805 8.10399 70.262 8.32899 69.818 8.77799C69.375 9.22799 69.152 9.80199 69.152 10.5C69.152 11.198 69.375 11.772 69.818 12.222Z" stroke="black" stroke-width="0.2" stroke-miterlimit="10"/>
<path d="M75.614 13.5V7.5H76.552L79.468 12.167H79.501L79.468 11.011V7.5H80.239V13.5H79.434L76.383 8.606H76.35L76.383 9.762V13.5H75.614Z" stroke="black" stroke-width="0.2" stroke-miterlimit="10"/>
<path fill-rule="evenodd" clip-rule="evenodd" d="M10.1954 8.46642C10.0773 8.73392 10.0121 9.06168 10.0121 9.44294V31.5589C10.0121 31.941 10.0774 32.2688 10.1957 32.5362L22.2296 20.5006L10.1954 8.46642ZM10.8907 33.2554C11.3367 33.4463 11.9186 33.3858 12.5531 33.0259L26.7102 24.9812L22.9367 21.2077L10.8907 33.2554ZM27.6126 24.4694L32.0541 21.9459C33.4511 21.1509 33.4511 19.8519 32.0541 19.0579L27.6106 16.5331L23.6438 20.5005L27.6126 24.4694ZM26.7089 16.0206L12.5531 7.97694C11.9186 7.61637 11.3367 7.5562 10.8906 7.74734L22.9366 19.7934L26.7089 16.0206Z" fill="#606176"/>
<rect x="0.539062" y="1" width="134" height="39" rx="4.5" stroke="#606176"/>
<rect x="0.539062" y="59" width="134" height="39" rx="6.5" fill="white"/>
<path d="M92.565 77.7009V79.9919H91.129V81.4943H92.565V86.5993C92.565 88.3425 93.3536 89.0397 95.3375 89.0397C95.6861 89.0397 96.0181 88.9982 96.3086 88.9484V87.4626C96.0596 87.4875 95.9019 87.5041 95.628 87.5041C94.7398 87.5041 94.3497 87.089 94.3497 86.1428V81.4943H96.3086V79.9919H94.3497V77.7009H92.565Z" fill="#606176"/>
<path d="M101.362 89.1642C104.002 89.1642 105.621 87.3962 105.621 84.466C105.621 81.5524 103.994 79.7761 101.362 79.7761C98.7228 79.7761 97.0959 81.5524 97.0959 84.466C97.0959 87.3962 98.7145 89.1642 101.362 89.1642ZM101.362 87.5788C99.8102 87.5788 98.9387 86.4416 98.9387 84.466C98.9387 82.507 99.8102 81.3615 101.362 81.3615C102.906 81.3615 103.786 82.507 103.786 84.466C103.786 86.4333 102.906 87.5788 101.362 87.5788Z" fill="#606176"/>
<path d="M107.006 88.9899H108.79V83.6525C108.79 82.3825 109.745 81.5275 111.098 81.5275C111.413 81.5275 111.945 81.5856 112.094 81.6354V79.8757C111.903 79.8259 111.563 79.801 111.297 79.801C110.118 79.801 109.114 80.4484 108.857 81.3366H108.724V79.9504H107.006V88.9899Z" fill="#606176"/>
<path d="M116.525 81.2951C117.845 81.2951 118.708 82.2165 118.75 83.6359H114.185C114.284 82.2248 115.206 81.2951 116.525 81.2951ZM118.742 86.5495C118.41 87.2551 117.671 87.6452 116.592 87.6452C115.164 87.6452 114.243 86.6408 114.185 85.0554V84.9557H120.568V84.3332C120.568 81.4943 119.049 79.7761 116.534 79.7761C113.985 79.7761 112.367 81.6105 112.367 84.4992C112.367 87.3879 113.952 89.1642 116.542 89.1642C118.609 89.1642 120.053 88.1681 120.46 86.5495H118.742Z" fill="#606176"/>
<path d="M80.8614 85.6518C80.9991 87.8715 82.8488 89.291 85.6019 89.291C88.5443 89.291 90.3855 87.8026 90.3855 85.4281C90.3855 83.5611 89.3359 82.5287 86.7892 81.935L85.4213 81.5995C83.8038 81.2209 83.1499 80.7133 83.1499 79.8272C83.1499 78.7087 84.1652 77.9774 85.688 77.9774C87.1334 77.9774 88.1314 78.6915 88.312 79.8358H90.1876C90.0758 77.7451 88.2346 76.2739 85.7138 76.2739C83.0037 76.2739 81.1969 77.7451 81.1969 79.9562C81.1969 81.7802 82.2208 82.8642 84.4663 83.389L86.0665 83.7762C87.7098 84.1634 88.4325 84.7312 88.4325 85.6776C88.4325 86.7788 87.2968 87.5789 85.7482 87.5789C84.0877 87.5789 82.9349 86.8304 82.7714 85.6518H80.8614Z" fill="#606176"/>
<path d="M62.3741 79.801C61.1456 79.801 60.0831 80.4152 59.5352 81.4445H59.4024V79.9504H57.6841V91.9948H59.4688V87.6203H59.6099C60.0831 88.5749 61.1041 89.1393 62.3907 89.1393C64.6734 89.1393 66.126 87.3381 66.126 84.466C66.126 81.5939 64.6734 79.801 62.3741 79.801ZM61.8677 87.5373C60.3736 87.5373 59.4356 86.3586 59.4356 84.4743C59.4356 82.5817 60.3736 81.403 61.876 81.403C63.3868 81.403 64.2916 82.5568 64.2916 84.466C64.2916 86.3835 63.3868 87.5373 61.8677 87.5373Z" fill="#606176"/>
<path d="M72.3709 79.801C71.1424 79.801 70.0799 80.4152 69.532 81.4445H69.3992V79.9504H67.6809V91.9948H69.4656V87.6203H69.6067C70.0799 88.5749 71.1008 89.1393 72.3875 89.1393C74.6702 89.1393 76.1228 87.3381 76.1228 84.466C76.1228 81.5939 74.6702 79.801 72.3709 79.801ZM71.8645 87.5373C70.3704 87.5373 69.4324 86.3586 69.4324 84.4743C69.4324 82.5817 70.3704 81.403 71.8728 81.403C73.3836 81.403 74.2883 82.5568 74.2883 84.466C74.2883 86.3835 73.3836 87.5373 71.8645 87.5373Z" fill="#606176"/>
<path d="M54.4821 88.9899H56.5298L52.0473 76.575H49.9739L45.4915 88.9899H47.4703L48.6145 85.6948H53.3465L54.4821 88.9899ZM50.9117 78.8292H51.0579L52.8561 84.0773H49.1049L50.9117 78.8292Z" fill="#606176"/>
<path d="M46.6902 67.2109V73.2H48.8525C50.6372 73.2 51.6707 72.1001 51.6707 70.1868C51.6707 68.3025 50.6289 67.2109 48.8525 67.2109H46.6902ZM47.6199 68.0576H48.7488C49.9897 68.0576 50.7244 68.8462 50.7244 70.1992C50.7244 71.573 50.0022 72.3533 48.7488 72.3533H47.6199V68.0576Z" fill="#606176"/>
<path d="M54.8357 73.2871C56.1556 73.2871 56.9649 72.4031 56.9649 70.938C56.9649 69.4812 56.1514 68.593 54.8357 68.593C53.5159 68.593 52.7024 69.4812 52.7024 70.938C52.7024 72.4031 53.5118 73.2871 54.8357 73.2871ZM54.8357 72.4944C54.0596 72.4944 53.6238 71.9258 53.6238 70.938C53.6238 69.9585 54.0596 69.3857 54.8357 69.3857C55.6077 69.3857 56.0477 69.9585 56.0477 70.938C56.0477 71.9216 55.6077 72.4944 54.8357 72.4944Z" fill="#606176"/>
<path d="M63.857 68.6802H62.9647L62.1595 72.1292H62.089L61.1593 68.6802H60.3043L59.3746 72.1292H59.3082L58.4989 68.6802H57.5941L58.8392 73.2H59.7564L60.6861 69.8713H60.7567L61.6905 73.2H62.6161L63.857 68.6802Z" fill="#606176"/>
<path d="M64.8847 73.2H65.777V70.5562C65.777 69.8506 66.1962 69.4106 66.8561 69.4106C67.516 69.4106 67.8314 69.7717 67.8314 70.498V73.2H68.7238V70.2739C68.7238 69.199 68.1676 68.593 67.1591 68.593C66.4784 68.593 66.0302 68.896 65.8102 69.3982H65.7438V68.6802H64.8847V73.2Z" fill="#606176"/>
<path d="M70.1291 73.2H71.0214V66.9163H70.1291V73.2Z" fill="#606176"/>
<path d="M74.3774 73.2871C75.6973 73.2871 76.5066 72.4031 76.5066 70.938C76.5066 69.4812 75.6931 68.593 74.3774 68.593C73.0576 68.593 72.2441 69.4812 72.2441 70.938C72.2441 72.4031 73.0535 73.2871 74.3774 73.2871ZM74.3774 72.4944C73.6013 72.4944 73.1655 71.9258 73.1655 70.938C73.1655 69.9585 73.6013 69.3857 74.3774 69.3857C75.1494 69.3857 75.5894 69.9585 75.5894 70.938C75.5894 71.9216 75.1494 72.4944 74.3774 72.4944Z" fill="#606176"/>
<path d="M79.1653 72.5234C78.6797 72.5234 78.327 72.2869 78.327 71.8801C78.327 71.4817 78.6092 71.27 79.2317 71.2285L80.3357 71.158V71.5356C80.3357 72.0959 79.8377 72.5234 79.1653 72.5234ZM78.9371 73.2747C79.5306 73.2747 80.0245 73.0173 80.2942 72.5649H80.3648V73.2H81.2239V70.1121C81.2239 69.1575 80.5848 68.593 79.4517 68.593C78.4266 68.593 77.6961 69.0911 77.6048 69.8672H78.4681C78.5677 69.5476 78.9122 69.365 79.4102 69.365C80.0203 69.365 80.3357 69.6348 80.3357 70.1121V70.5022L79.1114 70.5728C78.0364 70.6392 77.4305 71.1082 77.4305 71.9216C77.4305 72.7476 78.0655 73.2747 78.9371 73.2747Z" fill="#606176"/>
<path d="M84.252 73.2747C84.8746 73.2747 85.4017 72.98 85.6715 72.4861H85.742V73.2H86.597V66.9163H85.7047V69.3982H85.6383C85.3934 68.9001 84.8705 68.6055 84.252 68.6055C83.1107 68.6055 82.3761 69.5103 82.3761 70.938C82.3761 72.3699 83.1024 73.2747 84.252 73.2747ZM84.5052 69.4065C85.2523 69.4065 85.7213 70 85.7213 70.9421C85.7213 71.8884 85.2564 72.4736 84.5052 72.4736C83.7499 72.4736 83.2975 71.8967 83.2975 70.938C83.2975 69.9875 83.754 69.4065 84.5052 69.4065Z" fill="#606176"/>
<path d="M92.3835 73.2871C93.7033 73.2871 94.5126 72.4031 94.5126 70.938C94.5126 69.4812 93.6992 68.593 92.3835 68.593C91.0637 68.593 90.2502 69.4812 90.2502 70.938C90.2502 72.4031 91.0595 73.2871 92.3835 73.2871ZM92.3835 72.4944C91.6074 72.4944 91.1716 71.9258 91.1716 70.938C91.1716 69.9585 91.6074 69.3857 92.3835 69.3857C93.1555 69.3857 93.5954 69.9585 93.5954 70.938C93.5954 71.9216 93.1555 72.4944 92.3835 72.4944Z" fill="#606176"/>
<path d="M95.6938 73.2H96.5862V70.5562C96.5862 69.8506 97.0054 69.4106 97.6653 69.4106C98.3252 69.4106 98.6406 69.7717 98.6406 70.498V73.2H99.533V70.2739C99.533 69.199 98.9768 68.593 97.9683 68.593C97.2876 68.593 96.8394 68.896 96.6194 69.3982H96.553V68.6802H95.6938V73.2Z" fill="#606176"/>
<path d="M103.643 67.5554V68.7009H102.925V69.4521H103.643V72.0046C103.643 72.8762 104.037 73.2249 105.029 73.2249C105.203 73.2249 105.369 73.2041 105.514 73.1792V72.4363C105.39 72.4487 105.311 72.457 105.174 72.457C104.73 72.457 104.535 72.2495 104.535 71.7764V69.4521H105.514V68.7009H104.535V67.5554H103.643Z" fill="#606176"/>
<path d="M106.712 73.2H107.605V70.5603C107.605 69.8755 108.011 69.4148 108.742 69.4148C109.373 69.4148 109.709 69.78 109.709 70.5022V73.2H110.601V70.2822C110.601 69.2073 110.008 68.5972 109.045 68.5972C108.364 68.5972 107.887 68.9001 107.667 69.4065H107.596V66.9163H106.712V73.2Z" fill="#606176"/>
<path d="M113.82 69.3525C114.48 69.3525 114.912 69.8132 114.933 70.5229H112.65C112.7 69.8174 113.16 69.3525 113.82 69.3525ZM114.928 71.9797C114.762 72.3325 114.393 72.5276 113.853 72.5276C113.14 72.5276 112.679 72.0254 112.65 71.2327V71.1829H115.841V70.8716C115.841 69.4521 115.082 68.593 113.824 68.593C112.55 68.593 111.741 69.5103 111.741 70.9546C111.741 72.3989 112.534 73.2871 113.829 73.2871C114.862 73.2871 115.584 72.7891 115.788 71.9797H114.928Z" fill="#606176"/>
<path d="M30.8081 78.8008C30.8297 77.1198 31.7325 75.5292 33.1646 74.6488C32.2611 73.3584 30.7479 72.5403 29.1735 72.4911C27.4942 72.3148 25.8663 73.4959 25.0106 73.4959C24.1383 73.4959 22.8208 72.5086 21.4021 72.5378C19.5528 72.5975 17.8288 73.6489 16.9291 75.2656C14.9951 78.6141 16.4377 83.5351 18.2903 86.2417C19.2172 87.5671 20.3005 89.0475 21.718 88.995C23.105 88.9375 23.6231 88.1105 25.2974 88.1105C26.9561 88.1105 27.4422 88.995 28.8884 88.9616C30.3767 88.9375 31.3145 87.6304 32.2089 86.2925C32.8749 85.3481 33.3873 84.3044 33.7273 83.2C31.9782 82.4602 30.8101 80.7 30.8081 78.8008Z" fill="#606176"/>
<path d="M28.0764 70.7111C28.8879 69.7369 29.2877 68.4847 29.1909 67.2205C27.9511 67.3507 26.8058 67.9432 25.9833 68.8801C25.179 69.7954 24.7605 71.0255 24.8396 72.2415C26.0799 72.2542 27.2992 71.6777 28.0764 70.7111Z" fill="#606176"/>
<rect x="0.539062" y="59" width="134" height="39" rx="6.5" stroke="#606176"/>
</svg>
