<svg width="16" height="16" viewBox="0 0 16 16" fill="none" xmlns="http://www.w3.org/2000/svg">
<path d="M5.33334 3.83331C5.06001 3.83331 4.83334 3.60665 4.83334 3.33331V1.33331C4.83334 1.05998 5.06001 0.833313 5.33334 0.833313C5.60668 0.833313 5.83334 1.05998 5.83334 1.33331V3.33331C5.83334 3.60665 5.60668 3.83331 5.33334 3.83331Z" fill="#000"/>
<path d="M10.6667 3.83331C10.3933 3.83331 10.1667 3.60665 10.1667 3.33331V1.33331C10.1667 1.05998 10.3933 0.833313 10.6667 0.833313C10.94 0.833313 11.1667 1.05998 11.1667 1.33331V3.33331C11.1667 3.60665 10.94 3.83331 10.6667 3.83331Z" fill="#000"/>
<path d="M5.66667 9.66667C5.49333 9.66667 5.32 9.59333 5.19333 9.47333C5.07333 9.34666 5 9.18 5 9C5 8.91334 5.02 8.82667 5.05333 8.74667C5.08667 8.66667 5.13333 8.59334 5.19333 8.52667C5.44 8.28001 5.88667 8.28001 6.14 8.52667C6.26 8.65334 6.33333 8.82667 6.33333 9C6.33333 9.04 6.32667 9.08668 6.32 9.13334C6.31334 9.17334 6.3 9.21334 6.28 9.25334C6.26667 9.29334 6.24667 9.33333 6.22 9.37333C6.19333 9.40667 6.16667 9.44 6.14 9.47333C6.01333 9.59333 5.84 9.66667 5.66667 9.66667Z" fill="#000"/>
<path d="M8.00001 9.66667C7.91334 9.66667 7.82668 9.64668 7.74668 9.61335C7.66001 9.58001 7.59334 9.53333 7.52668 9.47333C7.40668 9.34667 7.33334 9.18 7.33334 9C7.33334 8.91334 7.35334 8.82667 7.38668 8.74667C7.42001 8.66667 7.46668 8.59334 7.52668 8.52668C7.59334 8.46668 7.66001 8.42 7.74668 8.38666C7.99335 8.28666 8.28668 8.34001 8.47334 8.52668C8.59334 8.65334 8.66668 8.82667 8.66668 9C8.66668 9.04 8.66001 9.08668 8.65335 9.13335C8.64668 9.17335 8.63334 9.21334 8.61334 9.25334C8.60001 9.29334 8.58001 9.33334 8.55334 9.37334C8.53334 9.40667 8.50001 9.44 8.47334 9.47333C8.34668 9.59333 8.17334 9.66667 8.00001 9.66667Z" fill="#000"/>
<path d="M5.66667 12C5.58 12 5.49334 11.98 5.41334 11.9467C5.32667 11.9134 5.25333 11.8667 5.19333 11.8067C5.13333 11.7467 5.08667 11.6734 5.05333 11.5867C5.02 11.5067 5 11.42 5 11.3334C5 11.2467 5.02 11.16 5.05333 11.08C5.08667 10.9933 5.13333 10.92 5.19333 10.86C5.25333 10.8 5.32667 10.7533 5.41334 10.72C5.57334 10.6533 5.76 10.6467 5.92 10.72C6.00666 10.7533 6.08 10.8 6.14 10.86C6.2 10.92 6.24667 10.9933 6.28 11.08C6.31333 11.16 6.33333 11.2467 6.33333 11.3334C6.33333 11.42 6.31333 11.5067 6.28 11.5867C6.24667 11.6734 6.2 11.7467 6.14 11.8067C6.08 11.8667 6.00666 11.9134 5.92 11.9467C5.84 11.98 5.75333 12 5.66667 12Z" fill="#000"/>
<path d="M13.6667 6.56H2.33334C2.06001 6.56 1.83334 6.33333 1.83334 6.06C1.83334 5.78666 2.06001 5.56 2.33334 5.56H13.6667C13.94 5.56 14.1667 5.78666 14.1667 6.06C14.1667 6.33333 13.94 6.56 13.6667 6.56Z" fill="#000"/>
<path d="M12 15.8333C11.22 15.8333 10.48 15.5533 9.91335 15.04C9.67335 14.84 9.46001 14.5867 9.28668 14.2933C8.99334 13.8133 8.83334 13.2467 8.83334 12.6667C8.83334 10.92 10.2533 9.5 12 9.5C12.9067 9.5 13.7733 9.89332 14.3733 10.5733C14.8867 11.16 15.1667 11.9 15.1667 12.6667C15.1667 13.2467 15.0067 13.8133 14.7067 14.3C14.1467 15.2467 13.1067 15.8333 12 15.8333ZM12 10.5C10.8067 10.5 9.83334 11.4733 9.83334 12.6667C9.83334 13.06 9.94001 13.4467 10.1467 13.78C10.26 13.98 10.4067 14.1467 10.5667 14.2867C10.9667 14.6467 11.4667 14.8333 12 14.8333C12.7667 14.8333 13.46 14.44 13.8533 13.7867C14.06 13.4467 14.1667 13.0667 14.1667 12.6667C14.1667 12.1467 13.9733 11.64 13.6267 11.2333C13.2133 10.7667 12.62 10.5 12 10.5Z" fill="#000"/>
<path d="M11.6199 13.8266C11.4932 13.8266 11.3666 13.78 11.2666 13.68L10.6066 13.02C10.4132 12.8266 10.4132 12.5066 10.6066 12.3133C10.7999 12.12 11.1199 12.12 11.3132 12.3133L11.6332 12.6333L12.6999 11.6466C12.8999 11.46 13.2199 11.4733 13.4066 11.6733C13.5932 11.8733 13.5799 12.1933 13.3799 12.38L11.9599 13.6933C11.8599 13.78 11.7399 13.8266 11.6199 13.8266Z" fill="#000"/>
<path d="M10.2467 15.1666H5.33333C2.9 15.1666 1.5 13.7666 1.5 11.3333V5.66665C1.5 3.23331 2.9 1.83331 5.33333 1.83331H10.6667C13.1 1.83331 14.5 3.23331 14.5 5.66665V10.9066C14.5 11.1133 14.3733 11.3 14.1733 11.3733C13.98 11.4466 13.76 11.3933 13.62 11.2333C13.2067 10.7667 12.6133 10.5 11.9933 10.5C10.8 10.5 9.82667 11.4733 9.82667 12.6666C9.82667 13.06 9.93333 13.4467 10.14 13.78C10.2533 13.98 10.4 14.1466 10.56 14.2866C10.72 14.42 10.78 14.64 10.7067 14.84C10.6467 15.0333 10.46 15.1666 10.2467 15.1666ZM5.33333 2.83331C3.42667 2.83331 2.5 3.75998 2.5 5.66665V11.3333C2.5 13.24 3.42667 14.1666 5.33333 14.1666H9.21333C8.96667 13.7133 8.83333 13.2 8.83333 12.6666C8.83333 10.92 10.2533 9.49998 12 9.49998C12.5267 9.49998 13.0467 9.63332 13.5 9.87998V5.66665C13.5 3.75998 12.5733 2.83331 10.6667 2.83331H5.33333Z" fill="#000"/>
</svg>
