<svg width="24" height="24" viewBox="0 0 24 24" fill="none" xmlns="http://www.w3.org/2000/svg">
<path d="M10.94 22.65C10.46 22.65 9.99002 22.53 9.55002 22.29C8.67002 21.8 8.14002 20.91 8.14002 19.91V14.61C8.14002 14.11 7.81002 13.36 7.50002 12.98L3.76002 9.02001C3.13002 8.39001 2.65002 7.31001 2.65002 6.50001V4.20001C2.65002 2.60001 3.86002 1.35001 5.40002 1.35001H18.6C20.12 1.35001 21.35 2.58001 21.35 4.10001V6.30001C21.35 7.35001 20.72 8.54001 20.13 9.13001L15.8 12.96C15.38 13.31 15.05 14.08 15.05 14.7V19C15.05 19.89 14.49 20.92 13.79 21.34L12.41 22.23C11.96 22.51 11.45 22.65 10.94 22.65ZM5.40002 2.85001C4.70002 2.85001 4.15002 3.44001 4.15002 4.20001V6.50001C4.15002 6.87001 4.45002 7.59001 4.83002 7.97001L8.64002 11.98C9.15002 12.61 9.65002 13.66 9.65002 14.6V19.9C9.65002 20.55 10.1 20.87 10.29 20.97C10.71 21.2 11.22 21.2 11.61 20.96L13 20.07C13.28 19.9 13.56 19.36 13.56 19V14.7C13.56 13.63 14.08 12.45 14.83 11.82L19.11 8.03001C19.45 7.69001 19.86 6.88001 19.86 6.29001V4.10001C19.86 3.41001 19.3 2.85001 18.61 2.85001H5.40002Z" fill="#292D32"/>
<path d="M5.99998 10.75C5.85998 10.75 5.72998 10.71 5.59998 10.64C5.24998 10.42 5.13998 9.94999 5.35998 9.59999L10.29 1.69999C10.51 1.34999 10.97 1.23999 11.32 1.45999C11.67 1.67999 11.78 2.13999 11.56 2.48999L6.62998 10.39C6.48998 10.62 6.24998 10.75 5.99998 10.75Z" fill="#292D32"/>
</svg>
