<svg width="21" height="20" viewBox="0 0 21 20" fill="none" xmlns="http://www.w3.org/2000/svg">
<path d="M5.25 2.72668V15.6942L9.27019 12.7836C9.61926 12.531 10.053 12.3933 10.5 12.3933C10.947 12.3933 11.3807 12.531 11.7298 12.7836L15.75 15.693V2.72668H5.25ZM4.59375 1.53918H16.4062C16.5803 1.53918 16.7472 1.60174 16.8703 1.71309C16.9934 1.82444 17.0625 1.97546 17.0625 2.13293V16.9292C17.0623 17.0409 17.0273 17.1503 16.9615 17.2449C16.8957 17.3394 16.8017 17.4152 16.6904 17.4636C16.5791 17.5119 16.4549 17.5309 16.3322 17.5183C16.2095 17.5057 16.0932 17.462 15.9967 17.3923L10.9095 13.7111C10.7932 13.627 10.6488 13.5813 10.5 13.5813C10.3512 13.5813 10.2068 13.627 10.0905 13.7111L5.00325 17.3923C4.90675 17.462 4.79048 17.5057 4.66778 17.5183C4.54508 17.5309 4.42094 17.5119 4.30963 17.4636C4.19831 17.4152 4.10434 17.3394 4.03852 17.2449C3.97269 17.1503 3.93768 17.0409 3.9375 16.9292V2.13293C3.9375 1.97546 4.00664 1.82444 4.12971 1.71309C4.25278 1.60174 4.4197 1.53918 4.59375 1.53918Z" fill="black"/>
</svg>
