<svg xmlns="http://www.w3.org/2000/svg" viewBox="0 0 1733.29 280.03"><defs><style>.cls-1{font-size:269.65px;font-family:Noir-Black, Noir;font-weight:800;}.cls-2{fill:#f2811d;}</style></defs><g id="Layer_2" data-name="Layer 2"><g id="Layer_1-2" data-name="Layer 1"><path d="M1330,256.65c-39,0-71.81-13.47-95-38.94-20.5-22.55-31.79-52.81-31.79-85.2s11.29-62.66,31.79-85.2c23.17-25.48,56-38.95,95-38.95a126.47,126.47,0,0,1,73.52,24.11l8.17,5.92L1376.6,85.84l-8.17-7.07c-7.36-6.38-21.24-13.19-38.12-13.19-45.67,0-66.47,34.69-66.47,66.93s20.8,66.93,66.47,66.93c16,0,28.48-4.1,38.07-12.53l8.1-7.11,35,46.4-7.62,6.07C1382.42,249.36,1360.32,256.65,1330,256.65ZM1580.88,252V160h-88.43V252H1433.6V160H1297.65V105H1433.6V13.06h58.85V105h88.43V13.06h58.84V252Z"/><text class="cls-1" transform="translate(0 255.49) scale(0.97 1)">OFFPIT</text><path class="cls-2" d="M1698.48,187.36a34.37,34.37,0,0,1,34.81,34.82c0,19.58-15.23,35.36-34.81,35.36a35.29,35.29,0,0,1-35.36-35.36C1663.12,202.6,1678.89,187.36,1698.48,187.36Z"/></g></g></svg>