<svg xmlns="http://www.w3.org/2000/svg" viewBox="0 0 628.69 757.74"><defs><style>.cls-1{fill:#ef6b07;}</style></defs><g id="Layer_2" data-name="Layer 2"><g id="Layer_1-2" data-name="Layer 1"><g id="_3" data-name="3"><g id="_3-2" data-name="3"><path d="M304,190.74c13.61,0,26.59,3.27,39.69,10,15,7.72,29.69,20,42.45,35.49,14.75,17.94,27,40.31,35.52,64.7a272.91,272.91,0,0,1,0,174.6c-8.48,24.39-20.77,46.77-35.52,64.7-12.76,15.5-27.44,27.78-42.45,35.49-13.1,6.74-26.08,10-39.69,10s-26.59-3.27-39.69-10c-15-7.71-29.69-20-42.45-35.49-14.75-17.93-27-40.31-35.52-64.7a272.91,272.91,0,0,1,0-174.6c8.48-24.39,20.77-46.76,35.52-64.7,12.76-15.5,27.44-27.77,42.45-35.49,13.1-6.74,26.08-10,39.69-10m0-172C136.11,18.74,0,184.17,0,388.24s136.11,369.5,304,369.5,304-165.43,304-369.5S471.89,18.74,304,18.74Z"/><path class="cls-1" d="M367,173.74,388.24,0S590.37,39.33,628.69,307.54l-173.69.2a211.37,211.37,0,0,0-88-134Z"/></g></g></g></g></svg>